inDegrees=yes
name=ik_MT_2026-09-03_16h27_01210270-001-000_orientations
DataType=double
version=3
OpenSimVersion=4.5
endheader
time	pelvis_tilt	pelvis_list	pelvis_rotation	pelvis_tx	pelvis_ty	pelvis_tz	hip_flexion_r	hip_adduction_r	hip_rotation_r	knee_angle_r	knee_angle_r_beta	ankle_angle_r	subtalar_angle_r	mtp_angle_r	hip_flexion_l	hip_adduction_l	hip_rotation_l	knee_angle_l	knee_angle_l_beta	ankle_angle_l	subtalar_angle_l	mtp_angle_l	lumbar_extension	lumbar_bending	lumbar_rotation	arm_flex_r	arm_add_r	arm_rot_r	elbow_flex_r	pro_sup_r	wrist_flex_r	wrist_dev_r	arm_flex_l	arm_add_l	arm_rot_l	elbow_flex_l	pro_sup_l	wrist_flex_l	wrist_dev_l
0	0.05504729197182812	-0.004203598450519665	176.6388237222509	0	0.9399999999999999	0	0.06839490528141945	0.004618540515595165	0.01326500170545629	0.0007456889682743464	1.301472769218688e-05	-0.03801799848927336	0	0	0.07395941099418166	0.001843577894659598	0.01002405979875944	-0.0002897128268712516	-5.056442714163642e-06	-0.0194186990491905	0	0	0.05612120137597112	0.002769031965498616	0.0002088881122077413	-0.4176880730592619	-0.09812197386469236	-0.01092237148893249	0.8490690119659285	14.88053626658804	0	0	-0.4188864540782337	-0.08939504743313791	-0.008297856773965316	0.8494222568740043	14.88053626658804	0	0
0.025	0.0748454812669028	-0.01644116393128709	176.7063644534302	0	0.9399999999999999	0	0.01053339061822571	-0.002406088723333099	-0.06342611310434809	-0.1186507864286673	-0.002070846883260849	-0.05571470504631385	0	0	0.0705487373124264	0.02300561038674028	0.08553490662153557	-0.01499455474608093	-0.0002617043501896546	0.003411554319901088	0	0	0.03144963552016902	-0.0004542063935029328	-0.1136856634197255	-0.3472885095517423	-0.09159121829895205	0.2174722196130228	0.8502350978217114	19.14429175971514	0	0	-0.380368161548192	-0.09217233143199022	-0.04165306080484401	0.8471460811707736	19.14429175971514	0	0
0.05	0.06047835973193637	-0.02069708154344937	176.6797853677031	0	0.9399999999999999	0	-0.01976988101032605	-0.011374086033742	-0.06442226693169048	-0.1446148924161943	-0.002524006020079969	-0.07288744981989122	0	0	0.07352760387141863	0.02142188058729688	0.02561507458138057	0.02765671184668164	0.0004827006819999158	0.003362242039382104	0	0	-0.06725051517269662	0.007718609602593371	-0.1208021608256372	-0.2436313419440244	-0.1318759435536196	0.2719171353789174	0.8465663129080112	24.75279094811821	0	0	-0.3101647712437272	-0.1014558385674311	-0.07283379223265032	0.8375196866968295	24.75279094811821	0	0
0.075	0.06454952309147736	-0.02952641350680588	176.76236182763	0	0.9399999999999999	0	-0.0542624230532768	-0.02801236165660575	-0.1607129060111236	-0.1907425439562106	-0.003329085415665886	-0.07524767258554767	0	0	0.06571713729079498	0.03167752723957869	0.0575211750871076	0.02326589120655668	0.0004060664049652102	0.02729137412369242	0	0	-0.09822658083121565	0.02157251686520101	-0.1391964094550015	-0.2007631753084872	-0.1282224280635119	0.4634177979154174	0.8557769299203033	24.76264324894758	0	0	-0.2957761788149592	-0.1012297624436479	0.006232095394667827	0.8432653284664381	24.76264324894758	0	0
0.1	0.07778646344905908	-0.05421771225414174	176.8878614088149	0	0.9399999999999999	0	-0.1425163865024362	-0.05097452896003671	-0.2262108998553981	-0.3865757347586646	-0.006747019379854983	-0.1746806595387979	0	0	0.06063757525723844	0.07167209284186354	0.207073654968886	0.01729675405905677	0.0003018853082382344	0.04509604969588835	0	0	-0.1627101294506702	0.001109721194750018	-0.4231911852823527	-0.1166348941206393	-0.1379443313341384	0.6219037948401298	0.8503920175158576	28.89356545020943	0	0	-0.2161232204084277	-0.1002016859900094	-0.1764307523804112	0.8323257122787174	28.89356545020943	0	0
0.125	0.023274655943377	-0.05382609889617778	177.059608019788	0	0.9399999999999999	0	-0.2392837361723331	-0.05653259027674409	-0.4700548752374852	-0.4431285702169148	-0.007734052559940046	-0.2098765127251434	0	0	0.01892045336057538	0.06630768305699096	0.3189619144645693	0.03459629983176615	0.0006038193410714797	0.05787497859881913	0	0	-0.3407127029847369	0.01644091008057075	-0.4590868809882923	0.02405731918628845	-0.1294528083222881	0.6955492058529082	0.8536110259522974	28.93013784865455	0	0	-0.1040300564171619	-0.1045574938693365	-0.02499767845500923	0.8422780345676339	28.93013784865455	0	0
0.15	0.0728973080109811	-0.06320975855816714	176.9626689746007	0	0.9399999999999999	0	-0.2177634737901223	-0.06389195789770201	-0.3284212480524442	-0.47118514169831	-0.008223732109111535	-0.1839885620748693	0	0	0.06050320086810735	0.07599003644917272	0.2619763261471533	0.03129046981546958	0.0005461217227758467	0.07487148363230067	0	0	-0.3064414732043051	0.02301541644834304	-0.4816312753044749	0.0301009432715543	-0.1323372869620362	0.825921128209025	0.8659600017581865	31.45783943036734	0	0	-0.09479498278243628	-0.09797413235879468	-0.1116511462185961	0.8435744846768366	31.45783943036734	0	0
0.175	0.1159098347503168	-0.06483198254632831	176.8862772068971	0	0.9399999999999999	0	-0.212452816088279	-0.0675153642768309	-0.1871827711278428	-0.5224822045996097	-0.009119034753341851	-0.1661288588871311	0	0	0.08754156963226627	0.06457981420960393	0.2856545031338678	0.02216165028441182	0.0003867937651385239	0.109417117660673	0	0	-0.3002640694636224	0.04330185054417987	-0.7444232147668243	0.06367722952157942	-0.1702075798783127	1.336910984622846	0.8848664423582216	33.39966738396497	0	0	-0.04907525080755743	-0.1120724499630126	-0.4316979722646825	0.8403036053166254	33.39966738396497	0	0
